<svg xmlns="http://www.w3.org/2000/svg" width="15" height="15" viewBox="0 0 15 15">
    <defs>
        <filter id="k3wuxhbnia">
            <feColorMatrix in="SourceGraphic" values="0 0 0 0 0.172549 0 0 0 0 0.674510 0 0 0 0 0.462745 0 0 0 1.000000 0"/>
        </filter>
    </defs>
    <g fill="none" fill-rule="evenodd">
        <g>
            <g>
                <g filter="url(#k3wuxhbnia)" transform="translate(-25 -502) translate(10 468) translate(0 22)">
                    <g fill="#000">
                        <path d="M7.5 0l.302.006C11.802.17 14.995 3.461 15 7.5c0 4.142-3.358 7.5-7.5 7.5C3.358 15 0 11.642 0 7.5 0 3.358 3.358 0 7.5 0zM4.152 11.24c.674 1.671 1.762 2.766 2.963 2.959V11.55l-.652-.026c-.652-.038-1.302-.112-1.946-.222l-.365-.063zm6.696-.001l-.366.063c-.858.147-1.727.23-2.597.248V14.2c1.2-.193 2.288-1.288 2.963-2.96zm2.511-.434l-1.64.284c-.305.952-.812 1.824-1.485 2.558l.325-.155c1.17-.6 2.146-1.532 2.8-2.687zm-11.718 0l.186.31c.711 1.113 1.733 1.993 2.939 2.532-.673-.734-1.18-1.606-1.485-2.558l-1.64-.284zm5.474-2.92h-3.64l.03.511c.054.681.176 1.355.363 2.013l.78.135c.815.139 1.64.218 2.467.235V7.885zm4.41 0h-3.64v2.894l.62-.024c.619-.036 1.235-.107 1.847-.211l.78-.135c.234-.822.366-1.67.392-2.524zm2.693 0h-1.924c-.024.803-.135 1.601-.332 2.38l1.803-.31c.26-.662.413-1.36.453-2.07zm-11.512 0H.782l.038.438c.066.58.195 1.136.338 1.618l1.88.325c-.197-.78-.308-1.578-.332-2.381zm.332-3.15l-1.803.31c-.26.662-.413 1.36-.453 2.07h1.924c.024-.803.135-1.601.332-2.38zm4.847-.514v2.894h3.64c-.027-.854-.159-1.702-.393-2.524l-.78-.135c-.815-.139-1.64-.218-2.467-.235zm-.77 0l-.62.024c-.619.036-1.235.107-1.847.211l-.78.135c-.234.822-.366 1.67-.392 2.524h3.64V4.221zm4.847.513c.197.78.308 1.578.332 2.381h1.924c-.041-.735-.197-1.453-.376-2.056l-1.88-.325zm-1.728-3.38c.673.733 1.18 1.605 1.485 2.557l1.64.284-.186-.31c-.711-1.113-1.733-1.993-2.939-2.532zm-5.468 0l-.325.154c-1.17.6-2.146 1.532-2.8 2.687l1.64-.284c.305-.952.812-1.824 1.485-2.558zM7.885.801v2.649l.652.025c.652.038 1.301.112 1.946.222l.364.064C10.173 2.09 9.085.995 7.885.802zm-.77 0c-1.2.192-2.288 1.287-2.963 2.96l.366-.064c.859-.147 1.727-.23 2.597-.247V.801z" transform="translate(15 12)"/>
                    </g>
                </g>
            </g>
        </g>
    </g>
</svg>
